<svg width="75" height="30" viewBox="0 0 75 30" fill="none" xmlns="http://www.w3.org/2000/svg">
<g clip-path="url(#clip0_1141_3547)">
<g filter="url(#filter0_b_1141_3547)">
<rect width="75" height="30" rx="15" fill="#EF7B3C"/>
</g>
<path d="M31.9571 11.152H37.7171V12.52H33.4091V14.392H37.4771V15.76H33.4091V17.632H37.7171V19H31.9571V11.152ZM39.7799 17.38C39.7799 17.58 39.8559 17.728 40.0079 17.824C40.1599 17.92 40.3559 17.968 40.5959 17.968C40.9479 17.968 41.2319 17.868 41.4479 17.668C41.6639 17.468 41.7719 17.212 41.7719 16.9H42.0119C42.0119 17.604 41.8359 18.172 41.4839 18.604C41.1319 19.036 40.6679 19.252 40.0919 19.252C39.5799 19.252 39.1559 19.104 38.8199 18.808C38.4839 18.504 38.3159 18.116 38.3159 17.644C38.3159 17.212 38.4439 16.872 38.6999 16.624C38.9559 16.368 39.3599 16.16 39.9119 16L41.7719 15.484V16.42L40.4039 16.804C39.9879 16.924 39.7799 17.116 39.7799 17.38ZM43.2359 19H41.7719L42.1799 17.62L41.7719 17.44V15.352C41.7719 15.096 41.6839 14.892 41.5079 14.74C41.3399 14.588 41.1119 14.512 40.8239 14.512C40.5199 14.512 40.2719 14.608 40.0799 14.8C39.8959 14.984 39.7879 15.224 39.7559 15.52L38.3159 15.328C38.4119 14.712 38.6839 14.208 39.1319 13.816C39.5799 13.424 40.1519 13.228 40.8479 13.228C41.5519 13.228 42.1239 13.42 42.5639 13.804C43.0119 14.188 43.2359 14.66 43.2359 15.22V19ZM44.2384 13.48H45.6904L45.2944 14.884L45.6904 15.04V19H44.2384V13.48ZM47.1064 14.752C46.7224 14.752 46.3904 14.868 46.1104 15.1C45.8304 15.332 45.6904 15.624 45.6904 15.976L45.4864 15.58C45.4864 14.916 45.6464 14.388 45.9664 13.996C46.2944 13.596 46.7264 13.396 47.2624 13.396H47.7304V14.752H47.1064ZM52.0223 15.556C52.0223 15.228 51.9223 14.968 51.7223 14.776C51.5303 14.576 51.2783 14.476 50.9663 14.476C50.6463 14.476 50.3823 14.58 50.1743 14.788C49.9663 14.988 49.8623 15.252 49.8623 15.58H49.6463C49.6463 14.932 49.8263 14.38 50.1863 13.924C50.5543 13.46 51.0263 13.228 51.6023 13.228C52.1303 13.228 52.5743 13.44 52.9343 13.864C53.2943 14.288 53.4743 14.808 53.4743 15.424V19H52.0223V15.556ZM48.4103 13.48H49.8623L49.4902 14.908L49.8623 15.04V19H48.4103V13.48ZM58.319 17.512L58.331 17.716H62.027V19H56.771V17.164L59.243 15.28C59.659 14.976 59.971 14.648 60.179 14.296C60.395 13.944 60.503 13.6 60.503 13.264C60.503 12.96 60.399 12.716 60.191 12.532C59.991 12.348 59.723 12.256 59.387 12.256C59.043 12.256 58.771 12.368 58.571 12.592C58.371 12.808 58.227 13.152 58.139 13.624L56.771 13.336C57.051 11.728 57.927 10.924 59.399 10.924C60.159 10.924 60.775 11.14 61.247 11.572C61.727 11.996 61.967 12.552 61.967 13.24C61.967 13.752 61.791 14.276 61.439 14.812C61.087 15.348 60.595 15.844 59.963 16.3L58.955 17.14L58.319 17.512ZM62.5623 11.152H68.6823V12.508H66.3423V19H64.8903V12.508H62.5623V11.152Z" fill="white"/>
</g>
<defs>
<filter id="filter0_b_1141_3547" x="-27.1828" y="-27.1828" width="129.366" height="84.3656" filterUnits="userSpaceOnUse" color-interpolation-filters="sRGB">
<feFlood flood-opacity="0" result="BackgroundImageFix"/>
<feGaussianBlur in="BackgroundImageFix" stdDeviation="13.5914"/>
<feComposite in2="SourceAlpha" operator="in" result="effect1_backgroundBlur_1141_3547"/>
<feBlend mode="normal" in="SourceGraphic" in2="effect1_backgroundBlur_1141_3547" result="shape"/>
</filter>
<clipPath id="clip0_1141_3547">
<rect width="75" height="30" fill="white"/>
</clipPath>
</defs>
</svg>
