<svg width="24" height="20" viewBox="0 0 24 20" fill="currentColor" xmlns="http://www.w3.org/2000/svg">
<g id="Group">
<path id="Vector" d="M11.9977 11.7639C8.79364 11.7639 4.05371 13.2614 4.05371 16.474C4.05371 17.9117 5.22269 19.0829 6.66259 19.0829H17.3328C18.7705 19.0829 19.9417 17.9139 19.9417 16.474C19.9417 13.2614 15.2017 11.7639 11.9977 11.7639ZM17.3349 17.3742H6.66473C6.16769 17.3742 5.76239 16.9689 5.76239 16.4719C5.76239 14.6394 9.45707 13.4683 11.9998 13.4683C14.5426 13.4683 18.2372 14.6373 18.2372 16.4719C18.2351 16.971 17.8319 17.3742 17.3349 17.3742Z" />
<path id="Vector_2" d="M11.9979 10.7256C14.7007 10.7256 16.9021 8.5263 16.9021 5.82143C16.9021 3.11655 14.7028 0.917236 11.9979 0.917236C9.29306 0.917236 7.09375 3.11655 7.09375 5.82143C7.09375 8.5263 9.29519 10.7256 11.9979 10.7256ZM11.9979 2.62592C13.7599 2.62592 15.1956 4.05942 15.1956 5.82356C15.1956 7.5877 13.7621 9.0212 11.9979 9.0212C10.2338 9.0212 8.8003 7.5877 8.8003 5.82356C8.8003 4.05942 10.2359 2.62592 11.9979 2.62592Z" />
<path id="Vector_3" d="M5.72204 11.9688C6.18708 11.8963 6.50705 11.459 6.43452 10.994C6.36199 10.5289 5.92255 10.209 5.45965 10.2815C3.06195 10.6548 0.5 11.8409 0.5 14.0423C0.5 14.5415 0.659987 15.0129 0.965033 15.4075C1.13355 15.6251 1.38528 15.7382 1.64126 15.7382C1.82258 15.7382 2.00817 15.6806 2.16176 15.559C2.53507 15.271 2.60332 14.7356 2.31534 14.3623C2.26628 14.2983 2.20655 14.1895 2.20655 14.0423C2.20655 13.0418 3.97497 12.2419 5.72204 11.9688Z" />
<path id="Vector_4" d="M5.598 9.26407C5.68973 9.29607 5.78572 9.311 5.87745 9.311C6.23156 9.311 6.56007 9.08915 6.6838 8.73717C6.83952 8.29134 6.60273 7.80497 6.15903 7.65138C5.22256 7.32501 4.59327 6.44187 4.59327 5.45207C4.59327 4.37908 5.32069 3.45114 6.36168 3.1909C6.81818 3.07784 7.09763 2.61493 6.98457 2.1563C6.87151 1.6998 6.40648 1.42035 5.94998 1.53341C4.14744 1.98138 2.88672 3.59193 2.88672 5.44994C2.88672 7.16715 3.97678 8.69878 5.598 9.26407Z" />
<path id="Vector_5" d="M18.5379 10.2815C18.0729 10.209 17.6356 10.5269 17.563 10.994C17.4905 11.4591 17.8084 11.8964 18.2755 11.9689C20.0226 12.2419 21.7931 13.0419 21.7931 14.0445C21.7931 14.1938 21.7334 14.3005 21.6843 14.3645C21.3964 14.7378 21.4646 15.2732 21.8379 15.5612C21.9937 15.6806 22.1771 15.7404 22.3584 15.7404C22.6144 15.7404 22.8661 15.6273 23.0347 15.4097C23.3397 15.0151 23.4997 14.5437 23.4997 14.0445C23.4976 11.8409 20.9356 10.657 18.5379 10.2815Z" />
<path id="Vector_6" d="M17.6363 3.19108C18.6773 3.4492 19.4047 4.37926 19.4047 5.45225C19.4047 6.44205 18.7754 7.32733 17.8389 7.65157C17.3931 7.80729 17.1584 8.29366 17.3142 8.73736C17.4358 9.08934 17.7664 9.31119 18.1205 9.31119C18.2144 9.31119 18.3082 9.29625 18.4 9.26426C20.0212 8.69896 21.1112 7.16733 21.1112 5.45225C21.1112 3.59425 19.8527 1.9837 18.048 1.53573C17.5915 1.42267 17.1286 1.69999 17.0134 2.15862C16.9003 2.61512 17.1798 3.07802 17.6363 3.19108Z" />
</g>
</svg>