<svg width="20" height="20" viewBox="0 0 20 20" fill="currentColor" xmlns="http://www.w3.org/2000/svg">
<g id="Group 6343920">
<path id="Vector" d="M17.3095 7.06239H16.0448V6.63703C16.0467 3.30447 13.3332 0.590942 9.99872 0.590942C6.66426 0.590942 3.95074 3.30447 3.95074 6.63893V7.06429H2.68607C1.32076 7.06239 0.208008 8.17514 0.208008 9.54235V12.0071C0.208008 13.3743 1.32076 14.4871 2.68797 14.4871H4.71219C5.13185 14.4871 5.47175 14.1472 5.47175 13.7275V11.5134V7.82195V6.63703C5.46985 4.14188 7.50167 2.11006 9.99872 2.11006C12.4958 2.11006 14.5276 4.14188 14.5276 6.63893V7.82384V11.5153V13.1768V13.7294V15.3245C14.5276 15.9131 14.0491 16.3917 13.4604 16.3917H12.6363C12.4445 15.5353 11.6792 14.8915 10.7659 14.8915H8.66C7.60232 14.8915 6.74211 15.7517 6.74211 16.8094V17.4911C6.74211 18.5488 7.60232 19.409 8.66 19.409H10.7659C11.6792 19.409 12.4445 18.7653 12.6363 17.9089H13.4604C14.8865 17.9089 16.0467 16.7487 16.0467 15.3226V14.4871H17.3114C18.6786 14.4871 19.7913 13.3743 19.7913 12.0071V9.54235C19.7894 8.17514 18.6767 7.06239 17.3095 7.06239ZM3.95074 12.968H2.68607C2.15628 12.968 1.72523 12.5369 1.72523 12.0071V9.54235C1.72523 9.01255 2.15628 8.58151 2.68607 8.58151H3.95074V11.5134V12.968ZM11.1627 17.4911C11.1627 17.7114 10.9843 17.8899 10.764 17.8899H8.66C8.43973 17.8899 8.26123 17.7114 8.26123 17.4911V16.8075C8.26123 16.5873 8.43973 16.4088 8.66 16.4088H10.7659C10.9862 16.4088 11.1646 16.5873 11.1646 16.8075V17.4911H11.1627ZM18.2703 12.0071C18.2703 12.5369 17.8393 12.968 17.3095 12.968H16.0448V11.5134V8.58151H17.3095C17.8393 8.58151 18.2703 9.01255 18.2703 9.54235V12.0071Z"/>
</g>
</svg>
