<svg width="20" height="20" viewBox="0 0 20 20" fill="currentColor" xmlns="http://www.w3.org/2000/svg">
<path d="M15.5212 19.1666H14.0284C12.693 19.1666 11.607 18.0806 11.607 16.7452V12.6545C11.607 12.24 11.2712 11.9042 10.8568 11.9042H9.13953C8.72509 11.9042 8.3893 12.24 8.3893 12.6545V16.7452C8.3893 18.0806 7.30331 19.1666 5.96789 19.1666H4.47513C3.1397 19.1666 2.05371 18.0806 2.05371 16.7452V9.50201C2.05371 7.91523 2.66002 6.4148 3.76136 5.27316L6.68357 2.24159C7.55851 1.33404 8.73659 0.833252 9.99911 0.833252C11.2616 0.833252 12.4378 1.33404 13.3147 2.24159L16.2369 5.27316C17.3382 6.4148 17.9445 7.91715 17.9445 9.50201V16.7452C17.9426 18.0806 16.8566 19.1666 15.5212 19.1666ZM9.13953 10.3693H10.8568C12.1174 10.3693 13.142 11.3939 13.142 12.6545V16.7452C13.142 17.2344 13.5391 17.6316 14.0284 17.6316H15.5212C16.0105 17.6316 16.4076 17.2344 16.4076 16.7452V9.50201C16.4076 8.31625 15.9548 7.19188 15.1298 6.33805L12.2076 3.30648C11.6243 2.70016 10.8395 2.36822 9.99719 2.36822C9.15679 2.36822 8.37204 2.70208 7.78684 3.30648L4.86462 6.33805C4.04149 7.19188 3.58676 8.31625 3.58676 9.50201V16.7452C3.58676 17.2344 3.98394 17.6316 4.47321 17.6316H5.96596C6.45524 17.6316 6.85242 17.2344 6.85242 16.7452V12.6545C6.85626 11.3939 7.88085 10.3693 9.13953 10.3693Z"/>
</svg>
