<svg width="30" height="30" viewBox="0 0 30 30" fill="none" xmlns="http://www.w3.org/2000/svg">
<circle cx="15" cy="15" r="15" fill="white" fill-opacity="0.1"/>
<path d="M18.565 18.4381H11.4338C10.4239 18.4381 9.55944 17.6651 9.46519 16.6795C9.42479 16.2594 9.51905 15.8473 9.73584 15.4878C10.0375 14.9869 10.191 14.5048 10.191 14.0551V13.3926C10.191 12.0824 10.708 10.8584 11.6466 9.94545C12.5891 9.02846 13.8279 8.5464 15.1354 8.58545C17.7113 8.65547 19.8079 10.8463 19.8079 13.468V14.0551C19.8079 14.5048 19.9614 14.9869 20.263 15.4878C20.4798 15.8473 20.5727 16.2594 20.5337 16.6795C20.4394 17.6651 19.5749 18.4381 18.565 18.4381ZM14.9873 9.65999C14.0151 9.65999 13.1008 10.033 12.3966 10.717C11.6681 11.4253 11.2668 12.3759 11.2668 13.3912V14.0537C11.2668 14.7028 11.0622 15.372 10.6568 16.0426C10.5599 16.2028 10.5182 16.3873 10.537 16.5758C10.5788 17.0148 10.9733 17.3595 11.4338 17.3595H18.565C19.0256 17.3595 19.4201 17.0148 19.4619 16.5758C19.4794 16.3873 19.4376 16.2028 19.342 16.0426C18.9367 15.372 18.732 14.7028 18.732 14.0537V13.4666C18.732 11.4239 17.1054 9.71654 15.1058 9.66133C15.0654 9.65999 15.0264 9.65999 14.9873 9.65999Z" fill="white"/>
<path d="M14.9985 21.417C13.9119 21.417 12.9437 20.7262 12.5909 19.6988C12.494 19.4174 12.6448 19.1117 12.9249 19.0147C13.2063 18.9178 13.512 19.0686 13.6089 19.35C13.8122 19.9425 14.3697 20.3411 14.9972 20.3411C15.6247 20.3411 16.1821 19.9425 16.3855 19.35C16.4824 19.0686 16.7881 18.9191 17.0695 19.0147C17.3509 19.1117 17.5004 19.4174 17.4048 19.6988C17.052 20.7262 16.0852 21.417 14.9985 21.417Z" fill="white"/>
<circle cx="25.5" cy="4.5" r="4" fill="#FF0000" stroke="#010101"/>
</svg>
