<svg width="20" height="20" viewBox="0 0 20 20" fill="currentColor" xmlns="http://www.w3.org/2000/svg">
<g id="Channels/Play">
<path id="Vector" d="M4.59978 18.3334C4.05446 18.3334 3.55372 18.1895 3.14017 17.9057C2.71648 17.6138 2.17928 17.034 2.03535 15.9291C1.80222 13.9627 1.68464 11.972 1.68262 10.0016C1.68262 8.03113 1.80019 6.04041 2.03332 4.08212C2.17928 2.96513 2.71648 2.38737 3.14017 2.09546C3.74631 1.67785 4.54908 1.56027 5.39646 1.76502C8.54674 2.5232 14.9325 5.99581 17.4016 8.03518C17.9773 8.51158 18.3118 9.22313 18.3159 9.99144V10.0117C18.3118 10.778 17.9793 11.4916 17.4016 11.968C14.9325 14.0073 8.54472 17.48 5.39646 18.2381C5.12481 18.301 4.85723 18.3334 4.59978 18.3334ZM4.59572 3.28745C4.38083 3.28745 4.19635 3.33611 4.0585 3.43139C3.7828 3.62195 3.6794 3.99901 3.64291 4.28282C3.41992 6.1661 3.30439 8.09397 3.30439 9.99955C3.30439 11.9072 3.41789 13.833 3.64291 15.7264C3.6794 16.0001 3.78077 16.3792 4.0585 16.5677C4.2815 16.7218 4.62206 16.7522 5.01737 16.6569C7.84938 15.9758 14.1033 12.5842 16.3698 10.7131C16.5704 10.5469 16.6921 10.2813 16.6941 10.0016V9.99347C16.6921 9.71777 16.5704 9.45018 16.3698 9.28395C14.1033 7.4108 7.84938 4.02131 5.01737 3.34016C4.86736 3.3057 4.72749 3.28745 4.59572 3.28745Z"/>
</g>
</svg>
