<svg width="16" height="16" viewBox="0 0 16 16" fill="none" xmlns="http://www.w3.org/2000/svg">
<path d="M14.442 13.36L10.9687 9.88672C12.5358 7.79278 12.3691 4.80225 10.4668 2.89796C8.38055 0.811682 4.98393 0.811682 2.89769 2.89796C0.811447 4.98425 0.811447 8.38092 2.89769 10.4672C3.94177 11.5113 5.31153 12.0324 6.6832 12.0324C7.81157 12.0324 8.93994 11.678 9.88632 10.9691L13.3596 14.4424C13.509 14.5919 13.7044 14.6666 13.9017 14.6666C14.0971 14.6666 14.2944 14.5919 14.4439 14.4424C14.7408 14.1436 14.7408 13.6589 14.442 13.36ZM3.98009 9.38479C2.49156 7.89623 2.49156 5.47277 3.98009 3.98229C4.72531 3.23706 5.70234 2.8654 6.68128 2.8654C7.66023 2.8654 8.63725 3.23706 9.38248 3.98229C10.871 5.47085 10.871 7.89431 9.38248 9.38479C7.89394 10.8753 5.46862 10.8733 3.98009 9.38479Z" fill="white"/>
</svg>
