<svg width="24" height="25" viewBox="0 0 24 25" fill="none" xmlns="http://www.w3.org/2000/svg">
<path fill-rule="evenodd" clip-rule="evenodd" d="M23.9975 11.0469V13.5492C23.9775 17.9801 18.8332 21.5726 12.4988 21.5726C6.16433 21.5726 1 17.9651 1 13.5243V11.0469H23.995H23.9975Z" fill="#FFC402"/>
<mask id="mask0_1141_3550" style="mask-type:luminance" maskUnits="userSpaceOnUse" x="1" y="11" width="23" height="11">
<path d="M23.9975 11.0469V13.5492C23.9775 17.9801 18.8332 21.5726 12.4988 21.5726C6.16433 21.5726 1 17.9651 1 13.5243V11.0469H23.995H23.9975Z" fill="white"/>
</mask>
<g mask="url(#mask0_1141_3550)">
<path fill-rule="evenodd" clip-rule="evenodd" d="M23.7803 29.5848V7.04883H23.5508V29.5848H23.7803Z" fill="#D89C05"/>
<path fill-rule="evenodd" clip-rule="evenodd" d="M23.1748 29.5848V7.04883H22.9453V29.5848H23.1748Z" fill="#D89C05"/>
<path fill-rule="evenodd" clip-rule="evenodd" d="M22.4117 29.5848V7.04883H22.0898V29.5848H22.4117Z" fill="#D89C05"/>
<path fill-rule="evenodd" clip-rule="evenodd" d="M21.4244 29.5848V7.04883H21.0352V29.5848H21.4244Z" fill="#D89C05"/>
<path fill-rule="evenodd" clip-rule="evenodd" d="M20.1466 29.5848V7.04883H19.6875V29.5848H20.1466Z" fill="#D89C05"/>
<path fill-rule="evenodd" clip-rule="evenodd" d="M18.7799 29.5848V7.04883H18.2734V29.5848H18.7799Z" fill="#D89C05"/>
<path fill-rule="evenodd" clip-rule="evenodd" d="M17.3639 29.5848V7.04883H16.8125V29.5848H17.3639Z" fill="#D89C05"/>
<path fill-rule="evenodd" clip-rule="evenodd" d="M15.9049 29.5848V7.04883H15.3086V29.5848H15.9049Z" fill="#D89C05"/>
<path fill-rule="evenodd" clip-rule="evenodd" d="M14.4274 29.5848V7.04883H13.7812V29.5848H14.4274Z" fill="#D89C05"/>
<path fill-rule="evenodd" clip-rule="evenodd" d="M12.8761 29.5848V7.04883H12.1875V29.5848H12.8761Z" fill="#D89C05"/>
<path fill-rule="evenodd" clip-rule="evenodd" d="M11.2804 29.5848V7.04883H10.6367V29.5848H11.2804Z" fill="#D89C05"/>
<path fill-rule="evenodd" clip-rule="evenodd" d="M9.72908 29.5848V7.04883H9.13281V29.5848H9.72908Z" fill="#D89C05"/>
<path fill-rule="evenodd" clip-rule="evenodd" d="M8.24667 29.5848V7.04883H7.69531V29.5848H8.24667Z" fill="#D89C05"/>
<path fill-rule="evenodd" clip-rule="evenodd" d="M6.7838 29.5848V7.04883H6.27734V29.5848H6.7838Z" fill="#D89C05"/>
<path fill-rule="evenodd" clip-rule="evenodd" d="M5.3653 29.5848V7.04883H4.90625V29.5848H5.3653Z" fill="#D89C05"/>
<path fill-rule="evenodd" clip-rule="evenodd" d="M4.0206 29.5848V7.04883H3.62891V29.5848H4.0206Z" fill="#D89C05"/>
<path fill-rule="evenodd" clip-rule="evenodd" d="M2.96246 29.5848V7.04883H2.64062V29.5848H2.96246Z" fill="#D89C05"/>
<path fill-rule="evenodd" clip-rule="evenodd" d="M2.08358 29.5848V7.04883H1.85156V29.5848H2.08358Z" fill="#D89C05"/>
<path fill-rule="evenodd" clip-rule="evenodd" d="M1.49906 29.5848V7.04883H1.26953V29.5848H1.49906Z" fill="#D89C05"/>
</g>
<path fill-rule="evenodd" clip-rule="evenodd" d="M23.9975 11.0484C23.9975 15.4892 18.8456 19.0968 12.4988 19.0968C6.15186 19.0968 1 15.4892 1 11.0484C1 6.60755 6.15436 3 12.5012 3C18.8481 3 24 6.60755 24 11.0484H23.9975Z" fill="#FFE44E"/>
<path fill-rule="evenodd" clip-rule="evenodd" d="M21.7095 11.0499C21.7095 14.3506 17.588 17.0276 12.511 17.0276C7.43399 17.0276 3.3125 14.3481 3.3125 11.0499C3.3125 7.75173 7.43399 5.07227 12.511 5.07227C17.588 5.07227 21.7095 7.75173 21.7095 11.0499Z" fill="#EB9F06"/>
<mask id="mask1_1141_3550" style="mask-type:luminance" maskUnits="userSpaceOnUse" x="3" y="5" width="19" height="13">
<path d="M21.6861 11.0441C21.6861 14.3447 17.5646 17.0217 12.4876 17.0217C7.41055 17.0217 3.28906 14.3422 3.28906 11.0441C3.28906 7.74587 7.41055 5.06641 12.4876 5.06641C17.5646 5.06641 21.6861 7.74587 21.6861 11.0441Z" fill="white"/>
</mask>
<g mask="url(#mask1_1141_3550)">
<path fill-rule="evenodd" clip-rule="evenodd" d="M25.6495 32.9685C25.6495 49.0777 6.96808 62.1532 -16.0444 62.1532C-39.0569 62.1532 -57.7383 49.0752 -57.7383 32.9685C-57.7383 16.8617 -39.0569 3.78125 -16.0444 3.78125C6.96808 3.78125 25.6495 16.8592 25.6495 32.966V32.9685Z" fill="#E59D0C"/>
<path fill-rule="evenodd" clip-rule="evenodd" d="M21.5264 11.495C21.5264 14.8132 17.4198 17.5076 12.3628 17.5076C7.30574 17.5076 3.19922 14.8132 3.19922 11.495C3.19922 8.17686 7.30574 5.48242 12.3628 5.48242C17.4198 5.48242 21.5264 8.17686 21.5264 11.495Z" fill="#FFD111"/>
</g>
<mask id="mask2_1141_3550" style="mask-type:luminance" maskUnits="userSpaceOnUse" x="3" y="5" width="19" height="13">
<mask id="mask3_1141_3550" style="mask-type:luminance" maskUnits="userSpaceOnUse" x="3" y="5" width="19" height="13">
<path d="M21.5732 11.4872C21.5732 14.8053 17.4667 17.4998 12.4097 17.4998C7.35261 17.4998 3.24609 14.8053 3.24609 11.4872C3.24609 8.16905 7.35261 5.47461 12.4097 5.47461C17.4667 5.47461 21.5732 8.16905 21.5732 11.4872Z" fill="white"/>
</mask>
<g mask="url(#mask3_1141_3550)">
<path d="M21.7329 11.0421C21.7329 14.3428 17.6115 17.0198 12.5344 17.0198C7.45743 17.0198 3.33594 14.3403 3.33594 11.0421C3.33594 7.74392 7.45743 5.06445 12.5344 5.06445C17.6115 5.06445 21.7329 7.74392 21.7329 11.0421Z" fill="white"/>
</g>
</mask>
<g mask="url(#mask2_1141_3550)">
<path fill-rule="evenodd" clip-rule="evenodd" d="M25.6534 32.9665C25.6534 49.0757 6.97199 62.1512 -16.0405 62.1512C-39.053 62.1512 -57.7344 49.0733 -57.7344 32.9665C-57.7344 16.8598 -39.053 3.7793 -16.0405 3.7793C6.97199 3.7793 25.6534 16.8573 25.6534 32.964V32.9665Z" fill="#FFC402"/>
</g>
<path d="M12.3942 15.6275C15.697 15.6275 18.3744 13.6415 18.3744 11.1917C18.3744 8.74185 15.697 6.75586 12.3942 6.75586C9.09147 6.75586 6.41406 8.74185 6.41406 11.1917C6.41406 13.6415 9.09147 15.6275 12.3942 15.6275Z" fill="#D89C05"/>
<path d="M10.2696 13.8993C12.2868 13.8993 13.9221 12.6862 13.9221 11.1899C13.9221 9.69351 12.2868 8.48047 10.2696 8.48047C8.25245 8.48047 6.61719 9.69351 6.61719 11.1899C6.61719 12.6862 8.25245 13.8993 10.2696 13.8993Z" fill="#FFD111"/>
<path d="M8.67793 11.1912C8.67793 10.4752 7.98436 9.9313 7.0438 9.87891C6.76937 10.2631 6.61719 10.7072 6.61719 11.1912C6.61719 11.6727 6.76937 12.1193 7.0438 12.5035C7.98436 12.4536 8.67793 11.9072 8.67793 11.1912Z" fill="#D89C05"/>
</svg>
